M48
; DRILL file {KiCad 9.0.7} date 2026-07-09T02:33:18-0700
; FORMAT={-:-/ absolute / metric / decimal}
; #@! TF.CreationDate,2026-07-09T02:33:18-07:00
; #@! TF.GenerationSoftware,Kicad,Pcbnew,9.0.7
; #@! TF.FileFunction,Plated,1,2,PTH
FMAT,2
METRIC
; #@! TA.AperFunction,Plated,PTH,ViaDrill
T1C0.300
; #@! TA.AperFunction,Plated,PTH,ComponentDrill
T2C0.700
; #@! TA.AperFunction,Plated,PTH,ComponentDrill
T3C0.750
; #@! TA.AperFunction,Plated,PTH,ComponentDrill
T4C0.800
; #@! TA.AperFunction,Plated,PTH,ComponentDrill
T5C1.100
%
G90
G05
T1
X63.375Y-55.884
X66.966Y-62.568
X71.393Y-57.396
X77.645Y-50.912
X78.247Y-67.454
X81.466Y-69.016
X82.236Y-61.449
X83.34Y-31.211
X84.304Y-49.73
X84.463Y-61.07
X87.212Y-49.466
X94.184Y-107.449
X99.392Y-43.048
X100.003Y-50.687
X100.059Y-87.193
X100.663Y-52.603
X103.444Y-38.469
X103.663Y-50.773
X104.543Y-47.942
X105.367Y-56.959
X106.928Y-42.208
X109.806Y-72.16
X109.929Y-51.246
X110.9Y-84.009
X110.9Y-94.243
X111.116Y-41.384
X111.476Y-50.857
X112.375Y-81.897
X115.46Y-29.319
X116.241Y-102.656
X121.281Y-61.459
X123.851Y-78.959
X129.784Y-90.426
X131.45Y-51.86
X131.78Y-67.312
X133.686Y-86.448
X139.33Y-74.15
X142.0Y-103.492
X143.517Y-38.466
X145.571Y-34.762
X148.761Y-29.964
X149.711Y-31.459
X150.643Y-34.16
X151.866Y-62.661
X153.376Y-61.79
X153.518Y-36.566
X158.813Y-30.852
X159.422Y-33.558
X161.015Y-62.876
X161.658Y-71.43
X164.367Y-39.84
X168.352Y-92.194
X170.929Y-35.364
X172.783Y-47.022
X174.619Y-47.986
T2
X60.23Y-50.23
X61.5Y-51.5
X62.77Y-50.23
T3
X59.0Y-105.986
X60.008Y-60.756
X60.008Y-70.143
X60.008Y-79.529
X61.0Y-105.986
X61.278Y-60.756
X61.278Y-70.143
X61.278Y-79.529
X62.548Y-60.756
X62.548Y-70.143
X62.548Y-79.529
X63.0Y-105.986
X68.5Y-105.986
X70.5Y-105.986
X72.5Y-105.986
X79.0Y-105.986
X81.0Y-105.986
X83.0Y-105.986
X88.5Y-105.986
X90.5Y-105.986
X92.5Y-105.986
X99.0Y-105.986
X101.0Y-105.986
X103.0Y-105.986
X108.5Y-105.986
X110.5Y-105.986
X112.5Y-105.986
X118.0Y-105.986
X120.0Y-105.986
X122.0Y-105.986
X128.5Y-106.0
X130.5Y-106.0
X132.5Y-106.0
X138.0Y-106.0
X140.0Y-106.0
X142.0Y-106.0
X147.5Y-106.0
X149.5Y-106.0
X151.5Y-106.0
X157.0Y-106.0
X159.0Y-106.0
X161.0Y-106.0
X168.5Y-106.0
X170.5Y-106.0
X171.25Y-87.35
X171.25Y-89.35
X171.25Y-91.35
T4
X60.408Y-88.708
X60.408Y-96.328
X64.881Y-88.708
X64.881Y-96.328
X69.353Y-88.708
X69.353Y-96.328
X69.39Y-32.88
X69.39Y-40.5
X70.185Y-79.23
X70.23Y-49.73
X70.23Y-59.98
X70.23Y-70.23
X71.93Y-32.88
X71.93Y-40.5
X72.685Y-79.23
X72.73Y-49.73
X72.73Y-59.98
X72.73Y-70.23
X73.826Y-88.708
X73.826Y-96.328
X74.47Y-32.88
X74.47Y-40.5
X77.01Y-32.88
X77.01Y-40.5
X78.299Y-88.708
X78.299Y-96.328
X79.55Y-32.88
X79.55Y-40.5
X80.822Y-58.558
X80.822Y-66.178
X80.822Y-70.938
X80.822Y-78.558
X80.862Y-46.058
X80.862Y-53.678
X82.09Y-32.88
X82.09Y-40.5
X82.772Y-88.708
X82.772Y-96.328
X83.362Y-58.558
X83.362Y-66.178
X83.362Y-70.938
X83.362Y-78.558
X83.402Y-46.058
X83.402Y-53.678
X84.63Y-32.88
X84.63Y-40.5
X85.902Y-58.558
X85.902Y-66.178
X85.902Y-70.938
X85.902Y-78.558
X85.942Y-46.058
X85.942Y-53.678
X87.245Y-88.708
X87.245Y-96.328
X88.442Y-58.558
X88.442Y-66.178
X88.442Y-70.938
X88.442Y-78.558
X88.482Y-46.058
X88.482Y-53.678
X90.982Y-58.558
X90.982Y-66.178
X90.982Y-70.938
X90.982Y-78.558
X91.022Y-46.058
X91.022Y-53.678
X91.16Y-32.76
X91.16Y-40.38
X91.718Y-88.708
X91.718Y-96.328
X93.522Y-58.558
X93.522Y-66.178
X93.522Y-70.938
X93.522Y-78.558
X93.562Y-46.058
X93.562Y-53.678
X93.7Y-32.76
X93.7Y-40.38
X96.062Y-58.558
X96.062Y-66.178
X96.062Y-70.938
X96.062Y-78.558
X96.102Y-46.058
X96.102Y-53.678
X96.19Y-88.708
X96.19Y-96.328
X96.24Y-32.76
X96.24Y-40.38
X98.78Y-32.76
X98.78Y-40.38
X100.663Y-88.708
X100.663Y-96.328
X101.32Y-32.76
X101.32Y-40.38
X103.322Y-71.058
X103.322Y-78.678
X103.442Y-45.938
X103.442Y-53.558
X103.442Y-58.538
X103.442Y-66.158
X103.86Y-32.76
X103.86Y-40.38
X105.136Y-88.708
X105.136Y-96.328
X105.862Y-71.058
X105.862Y-78.678
X105.982Y-45.938
X105.982Y-53.558
X105.982Y-58.538
X105.982Y-66.158
X106.4Y-32.76
X106.4Y-40.38
X108.402Y-71.058
X108.402Y-78.678
X108.522Y-45.938
X108.522Y-53.558
X108.522Y-58.538
X108.522Y-66.158
X108.94Y-32.76
X108.94Y-40.38
X109.609Y-88.708
X109.609Y-96.328
X110.942Y-71.058
X110.942Y-78.678
X111.062Y-45.938
X111.062Y-53.558
X111.062Y-58.538
X111.062Y-66.158
X113.482Y-71.058
X113.482Y-78.678
X113.602Y-45.938
X113.602Y-53.558
X113.602Y-58.538
X113.602Y-66.158
X114.082Y-88.708
X114.082Y-96.328
X115.46Y-32.88
X115.46Y-40.5
X116.022Y-71.058
X116.022Y-78.678
X116.142Y-45.938
X116.142Y-53.558
X116.142Y-58.538
X116.142Y-66.158
X118.0Y-32.88
X118.0Y-40.5
X118.554Y-88.708
X118.554Y-96.328
X118.562Y-71.058
X118.562Y-78.678
X118.682Y-45.938
X118.682Y-53.558
X118.682Y-58.538
X118.682Y-66.158
X120.54Y-32.88
X120.54Y-40.5
X123.027Y-88.708
X123.027Y-96.328
X123.08Y-32.88
X123.08Y-40.5
X125.286Y-45.92
X125.286Y-56.08
X125.286Y-59.13
X125.286Y-69.29
X125.286Y-72.42
X125.286Y-82.58
X125.62Y-32.88
X125.62Y-40.5
X127.5Y-88.69
X127.5Y-96.31
X128.16Y-32.88
X128.16Y-40.5
X130.336Y-45.92
X130.336Y-56.08
X130.336Y-59.13
X130.336Y-69.29
X130.336Y-72.5
X130.336Y-82.66
X130.7Y-32.88
X130.7Y-40.5
X133.24Y-32.88
X133.24Y-40.5
X135.386Y-45.92
X135.386Y-56.08
X135.386Y-59.13
X135.386Y-69.29
X135.386Y-72.5
X135.386Y-82.66
X135.5Y-87.84
X135.5Y-98.0
X140.436Y-45.92
X140.436Y-56.08
X140.436Y-59.13
X140.436Y-69.29
X140.436Y-72.5
X140.436Y-82.66
X140.5Y-32.42
X140.5Y-42.58
X140.714Y-87.84
X140.714Y-98.0
X145.486Y-45.92
X145.486Y-56.08
X145.571Y-32.42
X145.571Y-42.58
X145.929Y-87.84
X145.929Y-98.0
X149.0Y-63.84
X149.0Y-66.38
X149.0Y-68.92
X149.0Y-71.46
X149.0Y-74.0
X149.0Y-76.54
X149.0Y-79.08
X150.536Y-45.92
X150.536Y-56.08
X150.643Y-32.42
X150.643Y-42.58
X151.5Y-95.0
X155.586Y-45.92
X155.586Y-56.08
X155.714Y-32.42
X155.714Y-42.58
X156.5Y-95.0
X156.62Y-63.84
X156.62Y-66.38
X156.62Y-68.92
X156.62Y-71.46
X156.62Y-74.0
X156.62Y-76.54
X156.62Y-79.08
X160.636Y-45.92
X160.636Y-56.08
X160.786Y-32.42
X160.786Y-42.58
X164.0Y-63.84
X164.0Y-66.38
X164.0Y-68.92
X164.0Y-71.46
X164.0Y-74.0
X164.0Y-76.54
X164.0Y-79.08
X165.686Y-45.92
X165.686Y-56.08
X165.857Y-32.42
X165.857Y-42.58
X170.736Y-45.92
X170.736Y-56.08
X170.929Y-32.42
X170.929Y-42.58
X171.62Y-63.84
X171.62Y-66.38
X171.62Y-68.92
X171.62Y-71.46
X171.62Y-74.0
X171.62Y-76.54
X171.62Y-79.08
X175.786Y-45.92
X175.786Y-56.08
X176.0Y-32.42
X176.0Y-42.58
T5
X151.8Y-88.0
X161.96Y-88.0
M30
