M48
; DRILL file {KiCad 9.0.7} date 2026-08-16T23:58:15-0700
; FORMAT={-:-/ absolute / metric / decimal}
; #@! TF.CreationDate,2026-08-16T23:58:15-07:00
; #@! TF.GenerationSoftware,Kicad,Pcbnew,9.0.7
; #@! TF.FileFunction,Plated,1,2,PTH
FMAT,2
METRIC
; #@! TA.AperFunction,Plated,PTH,ViaDrill
T1C0.300
; #@! TA.AperFunction,Plated,PTH,ComponentDrill
T2C0.700
; #@! TA.AperFunction,Plated,PTH,ComponentDrill
T3C0.750
; #@! TA.AperFunction,Plated,PTH,ComponentDrill
T4C0.800
; #@! TA.AperFunction,Plated,PTH,ComponentDrill
T5C1.100
%
G90
G05
T1
X65.012Y-80.339
X75.822Y-53.572
X75.822Y-68.057
X78.734Y-68.833
X80.594Y-69.498
X82.188Y-42.129
X87.751Y-56.234
X89.299Y-47.206
X89.712Y-73.875
X89.919Y-48.224
X94.184Y-85.147
X97.001Y-66.52
X97.613Y-50.457
X98.0Y-105.986
X98.933Y-57.538
X99.97Y-51.945
X100.572Y-44.778
X101.889Y-51.059
X104.704Y-59.778
X107.298Y-93.166
X108.681Y-90.832
X112.178Y-60.38
X118.554Y-90.426
X119.238Y-29.768
X123.05Y-56.836
X129.233Y-91.172
X129.525Y-92.13
X132.5Y-108.993
X133.245Y-64.989
X136.915Y-76.785
X138.0Y-96.724
X138.761Y-49.75
X143.985Y-77.417
X145.093Y-67.635
X145.719Y-62.717
X148.959Y-61.91
X149.361Y-30.48
X151.683Y-49.809
X157.52Y-48.709
X159.451Y-34.108
X160.786Y-35.01
X165.176Y-31.254
X167.375Y-72.898
X168.077Y-33.522
X169.524Y-77.951
X173.163Y-29.157
X173.615Y-70.275
T2
X60.23Y-50.23
X61.5Y-51.5
X62.77Y-50.23
T3
X59.0Y-105.986
X60.008Y-60.756
X60.008Y-70.143
X60.008Y-79.529
X61.0Y-105.986
X61.278Y-60.756
X61.278Y-70.143
X61.278Y-79.529
X62.548Y-60.756
X62.548Y-70.143
X62.548Y-79.529
X63.0Y-105.986
X68.5Y-105.986
X70.5Y-105.986
X72.5Y-105.986
X79.0Y-105.986
X81.0Y-105.986
X83.0Y-105.986
X88.5Y-105.986
X90.5Y-105.986
X92.5Y-105.986
X99.0Y-105.986
X101.0Y-105.986
X103.0Y-105.986
X108.5Y-105.986
X110.5Y-105.986
X112.5Y-105.986
X118.0Y-105.986
X120.0Y-105.986
X122.0Y-105.986
X128.5Y-106.0
X130.5Y-106.0
X132.5Y-106.0
X138.0Y-106.0
X140.0Y-106.0
X142.0Y-106.0
X147.5Y-106.0
X149.5Y-106.0
X151.5Y-106.0
X157.0Y-106.0
X159.0Y-106.0
X161.0Y-106.0
X168.5Y-106.0
X170.5Y-106.0
X171.25Y-87.35
X171.25Y-89.35
X171.25Y-91.35
T4
X60.408Y-88.708
X60.408Y-96.328
X64.881Y-88.708
X64.881Y-96.328
X69.353Y-88.708
X69.353Y-96.328
X69.39Y-32.88
X69.39Y-40.5
X70.185Y-79.23
X70.23Y-49.73
X70.23Y-59.98
X70.23Y-70.23
X71.93Y-32.88
X71.93Y-40.5
X72.685Y-79.23
X72.73Y-49.73
X72.73Y-59.98
X72.73Y-70.23
X73.826Y-88.708
X73.826Y-96.328
X74.47Y-32.88
X74.47Y-40.5
X77.01Y-32.88
X77.01Y-40.5
X78.299Y-88.708
X78.299Y-96.328
X79.55Y-32.88
X79.55Y-40.5
X80.822Y-58.558
X80.822Y-66.178
X80.822Y-70.938
X80.822Y-78.558
X80.862Y-46.058
X80.862Y-53.678
X82.09Y-32.88
X82.09Y-40.5
X82.772Y-88.708
X82.772Y-96.328
X83.362Y-58.558
X83.362Y-66.178
X83.362Y-70.938
X83.362Y-78.558
X83.402Y-46.058
X83.402Y-53.678
X84.63Y-32.88
X84.63Y-40.5
X85.902Y-58.558
X85.902Y-66.178
X85.902Y-70.938
X85.902Y-78.558
X85.942Y-46.058
X85.942Y-53.678
X87.245Y-88.708
X87.245Y-96.328
X88.442Y-58.558
X88.442Y-66.178
X88.442Y-70.938
X88.442Y-78.558
X88.482Y-46.058
X88.482Y-53.678
X90.982Y-58.558
X90.982Y-66.178
X90.982Y-70.938
X90.982Y-78.558
X91.022Y-46.058
X91.022Y-53.678
X91.16Y-32.76
X91.16Y-40.38
X91.718Y-88.708
X91.718Y-96.328
X93.522Y-58.558
X93.522Y-66.178
X93.522Y-70.938
X93.522Y-78.558
X93.562Y-46.058
X93.562Y-53.678
X93.7Y-32.76
X93.7Y-40.38
X96.062Y-58.558
X96.062Y-66.178
X96.062Y-70.938
X96.062Y-78.558
X96.102Y-46.058
X96.102Y-53.678
X96.19Y-88.708
X96.19Y-96.328
X96.24Y-32.76
X96.24Y-40.38
X98.78Y-32.76
X98.78Y-40.38
X100.663Y-88.708
X100.663Y-96.328
X101.32Y-32.76
X101.32Y-40.38
X103.322Y-71.058
X103.322Y-78.678
X103.442Y-45.938
X103.442Y-53.558
X103.442Y-58.538
X103.442Y-66.158
X103.86Y-32.76
X103.86Y-40.38
X105.136Y-88.708
X105.136Y-96.328
X105.862Y-71.058
X105.862Y-78.678
X105.982Y-45.938
X105.982Y-53.558
X105.982Y-58.538
X105.982Y-66.158
X106.4Y-32.76
X106.4Y-40.38
X108.402Y-71.058
X108.402Y-78.678
X108.522Y-45.938
X108.522Y-53.558
X108.522Y-58.538
X108.522Y-66.158
X108.94Y-32.76
X108.94Y-40.38
X109.609Y-88.708
X109.609Y-96.328
X110.942Y-71.058
X110.942Y-78.678
X111.062Y-45.938
X111.062Y-53.558
X111.062Y-58.538
X111.062Y-66.158
X113.482Y-71.058
X113.482Y-78.678
X113.602Y-45.938
X113.602Y-53.558
X113.602Y-58.538
X113.602Y-66.158
X114.082Y-88.708
X114.082Y-96.328
X115.46Y-32.88
X115.46Y-40.5
X116.022Y-71.058
X116.022Y-78.678
X116.142Y-45.938
X116.142Y-53.558
X116.142Y-58.538
X116.142Y-66.158
X118.0Y-32.88
X118.0Y-40.5
X118.554Y-88.708
X118.554Y-96.328
X118.562Y-71.058
X118.562Y-78.678
X118.682Y-45.938
X118.682Y-53.558
X118.682Y-58.538
X118.682Y-66.158
X120.54Y-32.88
X120.54Y-40.5
X123.027Y-88.708
X123.027Y-96.328
X123.08Y-32.88
X123.08Y-40.5
X125.286Y-45.92
X125.286Y-56.08
X125.286Y-59.13
X125.286Y-69.29
X125.286Y-72.42
X125.286Y-82.58
X125.62Y-32.88
X125.62Y-40.5
X127.5Y-88.69
X127.5Y-96.31
X128.16Y-32.88
X128.16Y-40.5
X130.336Y-45.92
X130.336Y-56.08
X130.336Y-59.13
X130.336Y-69.29
X130.336Y-72.5
X130.336Y-82.66
X130.7Y-32.88
X130.7Y-40.5
X133.24Y-32.88
X133.24Y-40.5
X135.386Y-45.92
X135.386Y-56.08
X135.386Y-59.13
X135.386Y-69.29
X135.386Y-72.5
X135.386Y-82.66
X135.5Y-87.84
X135.5Y-98.0
X140.436Y-45.92
X140.436Y-56.08
X140.436Y-59.13
X140.436Y-69.29
X140.436Y-72.5
X140.436Y-82.66
X140.5Y-32.42
X140.5Y-42.58
X140.714Y-87.84
X140.714Y-98.0
X145.486Y-45.92
X145.486Y-56.08
X145.571Y-32.42
X145.571Y-42.58
X145.929Y-87.84
X145.929Y-98.0
X149.0Y-63.84
X149.0Y-66.38
X149.0Y-68.92
X149.0Y-71.46
X149.0Y-74.0
X149.0Y-76.54
X149.0Y-79.08
X150.536Y-45.92
X150.536Y-56.08
X150.643Y-32.42
X150.643Y-42.58
X151.5Y-95.0
X155.586Y-45.92
X155.586Y-56.08
X155.714Y-32.42
X155.714Y-42.58
X156.5Y-95.0
X156.62Y-63.84
X156.62Y-66.38
X156.62Y-68.92
X156.62Y-71.46
X156.62Y-74.0
X156.62Y-76.54
X156.62Y-79.08
X160.636Y-45.92
X160.636Y-56.08
X160.786Y-32.42
X160.786Y-42.58
X164.0Y-63.84
X164.0Y-66.38
X164.0Y-68.92
X164.0Y-71.46
X164.0Y-74.0
X164.0Y-76.54
X164.0Y-79.08
X165.686Y-45.92
X165.686Y-56.08
X165.857Y-32.42
X165.857Y-42.58
X170.736Y-45.92
X170.736Y-56.08
X170.929Y-32.42
X170.929Y-42.58
X171.62Y-63.84
X171.62Y-66.38
X171.62Y-68.92
X171.62Y-71.46
X171.62Y-74.0
X171.62Y-76.54
X171.62Y-79.08
X175.786Y-45.92
X175.786Y-56.08
X176.0Y-32.42
X176.0Y-42.58
T5
X151.8Y-88.0
X161.96Y-88.0
M30
